{
  "asset": {
    "generator": "glTF-Transform v4.2.0",
    "version": "2.0"
  },
  "accessors": [
    {
      "type": "VEC3",
      "componentType": 5126,
      "count": 3348,
      "max": [
        75.42807006835938,
        1.6012159585952759,
        43.546958923339844
      ],
      "min": [
        -81.65409851074219,
        0,
        -44.845916748046875
      ],
      "bufferView": 0,
      "byteOffset": 0
    },
    {
      "type": "VEC3",
      "componentType": 5126,
      "count": 3348,
      "bufferView": 0,
      "byteOffset": 12
    },
    {
      "type": "VEC2",
      "componentType": 5126,
      "count": 3348,
      "bufferView": 0,
      "byteOffset": 24
    },
    {
      "type": "SCALAR",
      "componentType": 5123,
      "count": 9252,
      "bufferView": 1,
      "byteOffset": 0
    },
    {
      "type": "SCALAR",
      "componentType": 5123,
      "count": 4278,
      "bufferView": 1,
      "byteOffset": 18504
    },
    {
      "type": "SCALAR",
      "componentType": 5123,
      "count": 7053,
      "bufferView": 1,
      "byteOffset": 27060
    },
    {
      "type": "SCALAR",
      "componentType": 5123,
      "count": 7053,
      "bufferView": 1,
      "byteOffset": 41168
    },
    {
      "type": "VEC3",
      "componentType": 5126,
      "count": 1590,
      "max": [
        82.5096435546875,
        1.6015421152114868,
        51.34490203857422
      ],
      "min": [
        -82.50962829589844,
        0,
        -51.34516906738281
      ],
      "bufferView": 2,
      "byteOffset": 0
    },
    {
      "type": "VEC3",
      "componentType": 5126,
      "count": 1590,
      "bufferView": 2,
      "byteOffset": 12
    },
    {
      "type": "VEC2",
      "componentType": 5126,
      "count": 1590,
      "bufferView": 2,
      "byteOffset": 24
    },
    {
      "type": "VEC3",
      "componentType": 5126,
      "count": 2255,
      "max": [
        82.5096435546875,
        0,
        51.34490203857422
      ],
      "min": [
        -82.50962829589844,
        0,
        -51.34516906738281
      ],
      "bufferView": 3,
      "byteOffset": 0
    },
    {
      "type": "VEC3",
      "componentType": 5126,
      "count": 2255,
      "bufferView": 3,
      "byteOffset": 12
    },
    {
      "type": "VEC2",
      "componentType": 5126,
      "count": 2255,
      "bufferView": 3,
      "byteOffset": 24
    },
    {
      "type": "VEC3",
      "componentType": 5126,
      "count": 2255,
      "max": [
        82.5096435546875,
        1.600000023841858,
        51.34490203857422
      ],
      "min": [
        -82.50962829589844,
        1.600000023841858,
        -51.34516906738281
      ],
      "bufferView": 4,
      "byteOffset": 0
    },
    {
      "type": "VEC3",
      "componentType": 5126,
      "count": 2255,
      "bufferView": 4,
      "byteOffset": 12
    },
    {
      "type": "VEC2",
      "componentType": 5126,
      "count": 2255,
      "bufferView": 4,
      "byteOffset": 24
    }
  ],
  "bufferViews": [
    {
      "buffer": 0,
      "byteOffset": 0,
      "byteLength": 107136,
      "byteStride": 32,
      "target": 34962
    },
    {
      "buffer": 0,
      "byteOffset": 107136,
      "byteLength": 55276,
      "target": 34963
    },
    {
      "buffer": 0,
      "byteOffset": 162412,
      "byteLength": 50880,
      "byteStride": 32,
      "target": 34962
    },
    {
      "buffer": 0,
      "byteOffset": 213292,
      "byteLength": 72160,
      "byteStride": 32,
      "target": 34962
    },
    {
      "buffer": 0,
      "byteOffset": 285452,
      "byteLength": 72160,
      "byteStride": 32,
      "target": 34962
    }
  ],
  "samplers": [
    {
      "magFilter": 9729,
      "minFilter": 9987,
      "wrapS": 10497,
      "wrapT": 10497
    }
  ],
  "textures": [
    {
      "sampler": 0,
      "extensions": {
        "KHR_texture_basisu": {
          "source": 1
        }
      }
    },
    {
      "sampler": 0,
      "extensions": {
        "KHR_texture_basisu": {
          "source": 0
        }
      }
    },
    {
      "sampler": 0,
      "extensions": {
        "KHR_texture_basisu": {
          "source": 3
        }
      }
    },
    {
      "sampler": 0,
      "extensions": {
        "KHR_texture_basisu": {
          "source": 2
        }
      }
    },
    {
      "sampler": 0,
      "extensions": {
        "KHR_texture_basisu": {
          "source": 5
        }
      }
    },
    {
      "sampler": 0,
      "extensions": {
        "KHR_texture_basisu": {
          "source": 4
        }
      }
    },
    {
      "sampler": 0,
      "extensions": {
        "KHR_texture_basisu": {
          "source": 6
        }
      }
    },
    {
      "sampler": 0,
      "extensions": {
        "KHR_texture_basisu": {
          "source": 8
        }
      }
    },
    {
      "sampler": 0,
      "extensions": {
        "KHR_texture_basisu": {
          "source": 7
        }
      }
    },
    {
      "sampler": 0,
      "extensions": {
        "KHR_texture_basisu": {
          "source": 9
        }
      }
    }
  ],
  "images": [
    {
      "name": "main_pcb_edge_gold_normal",
      "mimeType": "image/ktx2",
      "uri": "main_pcb_edge_gold_normal.ktx2"
    },
    {
      "name": "main_pcb_edge_gold_color",
      "mimeType": "image/ktx2",
      "uri": "main_pcb_edge_gold_color.ktx2"
    },
    {
      "name": "main_pcb_edge_bare_normal",
      "mimeType": "image/ktx2",
      "uri": "main_pcb_edge_bare_normal.ktx2"
    },
    {
      "name": "main_pcb_edge_bare_color",
      "mimeType": "image/ktx2",
      "uri": "main_pcb_edge_bare_color.ktx2"
    },
    {
      "name": "data-center-rdimm-ddr5-tester_main_pcb_bot_normal",
      "mimeType": "image/ktx2",
      "uri": "data-center-rdimm-ddr5-tester_main_pcb_bot_normal.ktx2"
    },
    {
      "name": "data-center-rdimm-ddr5-tester_main_pcb_bot_color",
      "mimeType": "image/ktx2",
      "uri": "data-center-rdimm-ddr5-tester_main_pcb_bot_color.ktx2"
    },
    {
      "name": "data-center-rdimm-ddr5-tester_main_pcb_bot_metallic_roughness",
      "mimeType": "image/ktx2",
      "uri": "data-center-rdimm-ddr5-tester_main_pcb_bot_metallic_roughness.ktx2"
    },
    {
      "name": "data-center-rdimm-ddr5-tester_main_pcb_top_normal",
      "mimeType": "image/ktx2",
      "uri": "data-center-rdimm-ddr5-tester_main_pcb_top_normal.ktx2"
    },
    {
      "name": "data-center-rdimm-ddr5-tester_main_pcb_top_color",
      "mimeType": "image/ktx2",
      "uri": "data-center-rdimm-ddr5-tester_main_pcb_top_color.ktx2"
    },
    {
      "name": "data-center-rdimm-ddr5-tester_main_pcb_top_metallic_roughness",
      "mimeType": "image/ktx2",
      "uri": "data-center-rdimm-ddr5-tester_main_pcb_top_metallic_roughness.ktx2"
    }
  ],
  "buffers": [
    {
      "uri": "data-center-rdimm-ddr5-tester.bin",
      "byteLength": 357612
    }
  ],
  "materials": [
    {
      "name": "gltf_main_pcb_edge_gold",
      "doubleSided": true,
      "pbrMetallicRoughness": {
        "roughnessFactor": 0.1840909868478775,
        "metallicFactor": 0.8999999761581421,
        "baseColorTexture": {
          "index": 0
        }
      },
      "normalTexture": {
        "index": 1
      },
      "extensions": {
        "KHR_materials_clearcoat": {
          "clearcoatFactor": 0,
          "clearcoatRoughnessFactor": 0.2890909016132355
        },
        "KHR_materials_ior": {
          "ior": 1.4500000476837158
        },
        "KHR_materials_sheen": {
          "sheenColorFactor": [
            1,
            1,
            1
          ],
          "sheenRoughnessFactor": 0.5
        },
        "KHR_materials_specular": {
          "specularFactor": 0.9499998092651367
        }
      }
    },
    {
      "name": "gltf_main_pcb_edge_bare",
      "doubleSided": true,
      "pbrMetallicRoughness": {
        "roughnessFactor": 0.5,
        "metallicFactor": 0.10000000149011612,
        "baseColorTexture": {
          "index": 2
        }
      },
      "normalTexture": {
        "index": 3
      }
    },
    {
      "name": "gltf_data-center-rdimm-ddr5-tester_main_pcb_bot",
      "doubleSided": true,
      "pbrMetallicRoughness": {
        "roughnessFactor": 1.5,
        "baseColorTexture": {
          "index": 4
        },
        "metallicRoughnessTexture": {
          "index": 6
        }
      },
      "normalTexture": {
        "index": 5
      }
    },
    {
      "name": "gltf_data-center-rdimm-ddr5-tester_main_pcb_top",
      "doubleSided": true,
      "pbrMetallicRoughness": {
        "roughnessFactor": 1.5,
        "baseColorTexture": {
          "index": 7
        },
        "metallicRoughnessTexture": {
          "index": 9
        }
      },
      "normalTexture": {
        "index": 8
      }
    }
  ],
  "meshes": [
    {
      "name": "PCB_layer1_mesh",
      "primitives": [
        {
          "attributes": {
            "POSITION": 0,
            "NORMAL": 1,
            "TEXCOORD_0": 2
          },
          "mode": 4,
          "material": 0,
          "indices": 3
        },
        {
          "attributes": {
            "POSITION": 7,
            "NORMAL": 8,
            "TEXCOORD_0": 9
          },
          "mode": 4,
          "material": 1,
          "indices": 4
        },
        {
          "attributes": {
            "POSITION": 10,
            "NORMAL": 11,
            "TEXCOORD_0": 12
          },
          "mode": 4,
          "material": 2,
          "indices": 5
        },
        {
          "attributes": {
            "POSITION": 13,
            "NORMAL": 14,
            "TEXCOORD_0": 15
          },
          "mode": 4,
          "material": 3,
          "indices": 6
        }
      ]
    }
  ],
  "nodes": [
    {
      "name": "PCB_layer1",
      "mesh": 0
    },
    {
      "name": "data-center-rdimm-ddr5-tester",
      "extras": {
        "PCB_X": 165.01927185058594,
        "PCB_Y": 102.69033813476562,
        "PCB_Z": 1.600000023841858
      },
      "children": [
        0
      ]
    }
  ],
  "scenes": [
    {
      "name": "Scene",
      "nodes": [
        1
      ]
    }
  ],
  "scene": 0,
  "extensionsUsed": [
    "KHR_materials_clearcoat",
    "KHR_materials_ior",
    "KHR_materials_sheen",
    "KHR_materials_specular",
    "KHR_texture_basisu"
  ],
  "extensionsRequired": [
    "KHR_texture_basisu"
  ]
}